# xmcd
#
# Track frame offsets: 
#        150
#        18035
#        35290
#        62025
#        82735
#        94080
#        123888
#        144005
#        156279
#        180829
#        198757
#        228458
#
# Disc length: 3246 seconds
#
# Revision: 0
# Processed by: cddbd v1.4PL0 Copyright (c) Steve Scherf et al.
# Submitted via: ExactAudioCopy v0.95a3
#
DISCID=7d0cac0c
DTITLE=Santino De Bartolo - dolce e amaro
DYEAR=2000
DGENRE=Blues
TTITLE0=Vento di mare
TTITLE1=Alti e bassi
TTITLE2=Cammineró
TTITLE3=Nuvola
TTITLE4=Ragazza argentina
TTITLE5=La canzone del sole
TTITLE6=Vecchio cuore
TTITLE7=Guerra e amore
TTITLE8=Un' amore lineare
TTITLE9=Dimmi che cos'è
TTITLE10=Che ora' è
TTITLE11=Josse e sottana
EXTD=
EXTT0=
EXTT1=
EXTT2=
EXTT3=
EXTT4=
EXTT5=
EXTT6=
EXTT7=
EXTT8=
EXTT9=
EXTT10=
EXTT11=
PLAYORDER=
